<svg width="721" height="679" viewBox="0 0 721 679" fill="none" xmlns="http://www.w3.org/2000/svg">
<path d="M333.447 141.051C249.575 83.781 116.121 148.687 125.447 285.234C141.349 518.052 303.583 545.096 445.446 518.052C631.082 482.664 673.912 270.297 502.501 285.234C364.941 297.221 438.287 212.639 333.447 141.051Z" fill="#FCDDD4"/>
<mask id="mask0" mask-type="alpha" maskUnits="userSpaceOnUse" x="68" y="89" width="584" height="501">
<path d="M333.446 141.052C249.574 83.7812 116.12 148.687 125.446 285.234C141.348 518.052 303.582 545.096 445.445 518.052C631.081 482.664 673.911 270.298 502.5 285.234C364.94 297.221 438.286 212.64 333.446 141.052Z" fill="#FCDDD4"/>
</mask>
<g mask="url(#mask0)">
<path opacity="0.7" d="M100.519 156.138C128.15 144.006 193.327 126.525 232.987 153.649C282.562 187.555 129.198 231.389 176.394 257.186C223.591 282.983 311.783 174.591 345.87 193.222C379.956 211.854 259.138 261.561 294.292 287.585C329.446 313.608 432.546 199.748 475.215 221.368C517.884 242.988 373.21 305.189 441.383 342.452" stroke="url(#paint0_linear)" stroke-width="2"/>
<path d="M270.447 545.051C270.447 517.437 292.833 495.051 320.447 495.051L587.447 495.051L587.447 605.051L270.447 605.051L270.447 545.051Z" fill="#F58A6B"/>
</g>
<path fill-rule="evenodd" clip-rule="evenodd" d="M157.814 299.676C159.451 301.023 160.731 302.466 161.741 303.854L164.372 300.343C163.124 299.019 161.908 297.814 160.454 296.673L157.814 299.676Z" fill="#3E1A0B"/>
<path fill-rule="evenodd" clip-rule="evenodd" d="M166.347 305.808C164.868 303.143 161.564 302.243 158.931 303.841L155.44 306.052C152.807 307.651 151.969 311.192 153.33 313.889C154.809 316.554 158.113 317.454 160.746 315.856L164.237 313.645C166.87 312.046 167.859 308.592 166.347 305.808Z" fill="#F69E9F"/>
<path fill-rule="evenodd" clip-rule="evenodd" d="M307.546 194.245L245.718 204.434L242.425 184.524C242.097 182.826 240.492 181.598 238.643 181.838L189.633 189.868C187.935 190.196 186.706 191.8 186.946 193.649L190.24 213.559L131.96 223.18C130.499 223.444 129.358 224.897 129.622 226.358L169.513 469.512C169.776 470.972 171.231 472.113 172.691 471.849L348.309 443.033C349.769 442.77 350.911 441.316 350.647 439.856L310.637 196.733C310.58 195.091 309.038 194.1 307.546 194.245Z" fill="url(#paint1_linear)"/>
<path fill-rule="evenodd" clip-rule="evenodd" d="M298.966 225.048L144.635 250.456C143.293 250.688 142.358 251.959 142.59 253.3L177.149 463.697C177.38 465.038 178.651 465.973 179.993 465.741L334.324 440.333C335.666 440.101 336.601 438.83 336.369 437.489L301.81 227.092C301.579 225.751 300.307 224.816 298.966 225.048Z" fill="#F36F49"/>
<path fill-rule="evenodd" clip-rule="evenodd" d="M298.491 217.591L147.913 242.248C146.572 242.48 145.756 243.719 145.988 245.06L179.715 450.45C179.947 451.791 181.186 452.607 182.527 452.376L333.192 427.567C334.533 427.335 335.35 426.096 335.118 424.755L301.391 219.365C301.072 218.175 299.832 217.359 298.491 217.591Z" fill="#FAFBFC"/>
<path opacity="0.8" d="M292.961 226.472L155.979 249.017C155.233 249.089 154.583 249.518 154.234 250.122C153.885 250.726 153.688 251.416 153.76 252.162L184.889 441.666C184.962 442.412 185.391 443.062 185.995 443.411C186.598 443.759 187.289 443.957 188.035 443.884L325.049 421.458C325.795 421.386 326.446 420.956 326.794 420.353C327.143 419.749 327.34 419.058 327.268 418.312L296.107 228.69C296.035 227.944 295.605 227.294 295.002 226.945C294.398 226.597 293.707 226.399 292.961 226.472ZM326.165 418.48C326.292 418.957 326.15 419.377 325.857 419.711C325.563 420.045 325.238 420.26 324.762 420.387L187.899 442.9C187.423 443.028 187.002 442.885 186.669 442.592C186.335 442.299 186.12 441.974 185.993 441.498L154.831 251.875C154.704 251.399 154.846 250.978 155.14 250.645C155.433 250.311 155.758 250.096 156.234 249.969L293.216 227.424C293.692 227.296 294.113 227.438 294.447 227.732C294.781 228.025 294.995 228.35 295.123 228.826L326.165 418.48Z" fill="#F58A6B"/>
<path fill-rule="evenodd" clip-rule="evenodd" d="M214.919 191.384C211.998 191.912 210.04 194.605 210.568 197.525C211.095 200.445 213.788 202.402 216.709 201.875C219.63 201.347 221.587 198.654 221.06 195.734C220.565 192.933 217.839 190.857 214.919 191.384Z" fill="#FAFBFC"/>
<path fill-rule="evenodd" clip-rule="evenodd" d="M256.041 199.627L179.038 212.224C177.339 212.551 176.111 214.156 176.351 216.005L179.94 237.494C180.268 239.192 181.872 240.42 183.722 240.18L260.725 227.583C262.423 227.256 263.652 225.651 263.412 223.802L259.91 202.162C259.463 200.496 257.739 199.299 256.041 199.627Z" fill="#F58A6B"/>
<path opacity="0.8" fill-rule="evenodd" clip-rule="evenodd" d="M214.599 209.711L185.264 214.51C183.923 214.742 182.987 216.013 183.219 217.354L186.009 233.955C186.24 235.296 187.512 236.231 188.853 235.999L218.188 231.2C219.529 230.968 220.464 229.697 220.232 228.356L217.443 211.755C217.211 210.414 215.94 209.479 214.599 209.711Z" fill="#F36F49"/>
<path opacity="0.2" d="M210.508 264.02L210.848 266.086L291.471 252.833L291.131 250.767L210.508 264.02Z" fill="#EE4D47"/>
<path opacity="0.2" d="M211.358 269.251L211.697 271.318L292.32 258.064L291.981 255.998L211.358 269.251Z" fill="#EE4D47"/>
<path opacity="0.2" d="M252.418 267.704L252.758 269.771L293.13 263.134L292.79 261.067L252.418 267.704Z" fill="#EE4D47"/>
<path opacity="0.2" d="M212.204 274.342L212.544 276.409L250.363 270.192L250.023 268.125L212.204 274.342Z" fill="#EE4D47"/>
<path opacity="0.2" d="M216.069 298.205L216.408 300.272L297.031 287.019L296.692 284.952L216.069 298.205Z" fill="#EE4D47"/>
<path opacity="0.2" d="M216.918 303.437L217.258 305.504L297.881 292.25L297.541 290.183L216.918 303.437Z" fill="#EE4D47"/>
<path opacity="0.2" d="M258.103 301.87L258.442 303.937L298.815 297.3L298.475 295.233L258.103 301.87Z" fill="#EE4D47"/>
<path opacity="0.2" d="M217.767 308.528L218.106 310.594L255.925 304.378L255.585 302.311L217.767 308.528Z" fill="#EE4D47"/>
<path opacity="0.2" d="M221.125 328.865L221.465 330.932L302.088 317.678L301.748 315.612L221.125 328.865Z" fill="#EE4D47"/>
<path opacity="0.2" d="M221.975 334.096L222.314 336.163L302.937 322.91L302.598 320.843L221.975 334.096Z" fill="#EE4D47"/>
<path opacity="0.2" d="M263.158 332.529L263.498 334.596L303.87 327.959L303.531 325.893L263.158 332.529Z" fill="#EE4D47"/>
<path opacity="0.2" d="M222.821 339.188L223.161 341.255L260.98 335.038L260.64 332.971L222.821 339.188Z" fill="#EE4D47"/>
<path opacity="0.2" d="M226.295 360.445L226.635 362.512L307.258 349.259L306.918 347.192L226.295 360.445Z" fill="#EE4D47"/>
<path opacity="0.2" d="M227.166 365.798L227.506 367.865L308.129 354.612L307.789 352.545L227.166 365.798Z" fill="#EE4D47"/>
<path opacity="0.2" d="M268.348 364.231L268.688 366.298L309.06 359.662L308.72 357.595L268.348 364.231Z" fill="#EE4D47"/>
<path opacity="0.2" d="M228.012 370.89L228.352 372.957L266.17 366.74L265.831 364.673L228.012 370.89Z" fill="#EE4D47"/>
<path opacity="0.2" d="M231.386 391.822L231.726 393.889L312.349 380.636L312.009 378.569L231.386 391.822Z" fill="#EE4D47"/>
<path opacity="0.2" d="M232.236 397.054L232.575 399.121L313.198 385.867L312.858 383.8L232.236 397.054Z" fill="#EE4D47"/>
<path opacity="0.2" d="M273.419 395.486L273.759 397.553L314.131 390.917L313.791 388.85L273.419 395.486Z" fill="#EE4D47"/>
<path opacity="0.2" d="M233.205 402.126L233.545 404.192L271.364 397.976L271.024 395.909L233.205 402.126Z" fill="#EE4D47"/>
<path opacity="0.2" d="M172.468 264.37L171.484 264.506L171.62 265.49L174.649 283.94L174.786 284.924L175.77 284.788L195.564 281.525L196.548 281.388L196.412 280.404L193.383 261.955L193.246 260.971L192.262 261.107L172.468 264.37ZM194.34 279.812L176.363 282.715L173.573 266.115L191.431 263.243L194.34 279.812Z" fill="#EE4D47"/>
<path opacity="0.2" d="M178.105 299.214L177.12 299.35L177.376 300.302L180.405 318.752L180.541 319.736L181.526 319.6L201.32 316.337L202.304 316.201L202.168 315.217L199.138 296.767L199.002 295.783L198.018 295.919L178.105 299.214ZM199.977 314.656L182.119 317.527L179.329 300.927L197.187 298.055L199.977 314.656Z" fill="#EE4D47"/>
<path opacity="0.2" d="M183.597 332.566L182.613 332.702L182.749 333.686L185.778 352.136L185.914 353.12L186.899 352.984L206.693 349.721L207.677 349.584L207.541 348.6L204.511 330.151L204.375 329.167L203.391 329.303L183.597 332.566ZM205.469 348.008L187.611 350.879L184.821 334.279L202.679 331.407L205.469 348.008Z" fill="#EE4D47"/>
<path opacity="0.2" d="M189.152 366.156L188.168 366.292L188.304 367.276L191.366 385.845L191.502 386.829L192.486 386.693L212.281 383.43L213.265 383.294L213.129 382.31L210.099 363.86L209.963 362.876L208.979 363.012L189.152 366.156ZM211.024 381.598L193.166 384.47L190.377 367.869L208.235 364.998L211.024 381.598Z" fill="#EE4D47"/>
<path opacity="0.2" d="M194.509 398.524L193.525 398.661L193.661 399.645L196.691 418.094L196.827 419.078L197.811 418.942L217.605 415.679L218.589 415.543L218.453 414.559L215.424 396.109L215.287 395.125L214.303 395.261L194.509 398.524ZM216.349 413.847L198.491 416.719L195.701 400.118L213.559 397.247L216.349 413.847Z" fill="#EE4D47"/>
<path d="M184.783 273.188L174.456 267.026L173.291 268.869L184.643 275.522L185.548 276.045L186.071 275.139L200.04 252.517L198.229 251.472L184.783 273.188Z" fill="#EE4D47"/>
<path d="M190.675 308.984L180.348 302.822L179.183 304.665L190.535 311.318L191.408 311.722L191.963 310.935L205.901 288.194L204.09 287.149L190.675 308.984Z" fill="#F58A6B"/>
<path d="M201.954 377.268L191.508 371.138L190.463 372.949L201.695 379.634L202.601 380.156L203.124 379.251L217.212 356.597L215.369 355.433L201.954 377.268Z" fill="#F58A6B"/>
<path fill-rule="evenodd" clip-rule="evenodd" d="M172.553 483.239C171.482 483.526 170.872 484.582 171.159 485.653C171.446 486.725 172.502 487.334 173.574 487.047C174.645 486.76 175.255 485.704 174.968 484.633C174.681 483.562 173.624 482.952 172.553 483.239Z" fill="#FAFBFC"/>
<path d="M201.943 474.838C202.688 474.504 203.021 473.629 202.686 472.884C202.351 472.139 201.476 471.806 200.731 472.141C199.986 472.476 199.653 473.351 199.988 474.096C200.323 474.841 201.198 475.173 201.943 474.838Z" fill="#FAFBFC"/>
<path d="M242.727 462.777C243.319 462.618 243.67 462.01 243.512 461.419C243.353 460.827 242.745 460.476 242.153 460.635C241.562 460.793 241.211 461.401 241.369 461.993C241.528 462.585 242.136 462.936 242.727 462.777Z" fill="#FAFBFC"/>
<path fill-rule="evenodd" clip-rule="evenodd" d="M263.942 458.623C262.99 458.879 262.467 459.784 262.722 460.736C262.977 461.688 263.883 462.211 264.835 461.956C265.787 461.701 266.31 460.795 266.055 459.843C265.832 459.01 264.894 458.368 263.942 458.623Z" fill="#FAFBFC"/>
<path fill-rule="evenodd" clip-rule="evenodd" d="M296.195 451.384C295.838 451.48 295.663 451.782 295.759 452.139C295.855 452.496 296.157 452.67 296.514 452.575C296.871 452.479 297.045 452.177 296.949 451.82C296.973 451.431 296.552 451.289 296.195 451.384Z" fill="#FAFBFC"/>
<path fill-rule="evenodd" clip-rule="evenodd" d="M362.82 429.578C362.225 429.737 361.996 430.309 362.123 430.785C362.283 431.38 362.855 431.61 363.331 431.482C363.926 431.323 364.155 430.751 364.028 430.275C364.019 429.767 363.416 429.418 362.82 429.578Z" fill="#FAFBFC"/>
<path d="M473.926 238.052C473.926 227.006 464.971 218.052 453.926 218.052H378.446C367.401 218.052 358.446 227.006 358.446 238.052V248.454C358.446 259.5 367.401 268.454 378.446 268.454H473.926V238.052Z" fill="white"/>
<circle r="3.82804" transform="matrix(-1 0 0 1 447.768 243.572)" fill="#F4A984"/>
<circle r="3.82804" transform="matrix(-1 0 0 1 431.816 243.572)" fill="#F4A984"/>
<circle r="3.82804" transform="matrix(-1 0 0 1 415.866 243.572)" fill="#F4A984"/>
<circle r="3.82804" transform="matrix(-1 0 0 1 399.916 243.572)" fill="#F4A984"/>
<circle r="3.82804" transform="matrix(-1 0 0 1 383.966 243.572)" fill="#F4A984"/>
<path d="M324.447 405.552C280.847 405.552 302.947 342.552 319.447 311.051C328.281 304.385 349.947 290.952 365.947 290.552C381.947 290.152 391.947 310.052 394.947 320.052C393.114 320.218 391.247 327.852 398.447 357.052C405.647 386.252 402.114 401.552 399.447 405.552H324.447Z" fill="#402B2B"/>
<path d="M370.047 390.592C365.934 383.403 369.019 372.277 369.019 372.277L356.338 374.845L343.658 372.277C343.658 372.277 345.2 377.583 344.686 383.403C349.142 388.538 359.423 398.124 370.047 390.592Z" fill="url(#paint2_linear)"/>
<path d="M368.245 376.285C365.47 377.957 361.962 379.504 358.037 380.691C353.113 382.18 348.422 382.831 344.739 382.691C345.077 377.158 343.658 372.277 343.658 372.277L356.338 374.845L369.019 372.277C369.019 372.277 368.571 373.89 368.245 376.285Z" fill="url(#paint3_linear)" style="mix-blend-mode:multiply"/>
<path d="M325.323 400.691C332.691 407.196 347.257 421.403 356.51 421.403C365.763 421.403 382.213 407.88 389.581 401.376C385.983 400.007 375.016 395.727 372.446 393.502C371.589 392.646 370.732 391.619 370.218 390.592C359.594 398.124 349.313 388.538 344.858 383.232C344.515 386.998 343.487 390.763 340.574 393.331C337.661 395.727 328.75 399.322 325.323 400.691Z" fill="url(#paint4_linear)"/>
<path d="M391.223 333.422C390.024 331.197 388.139 330.854 386.939 331.197C386.939 331.197 383.512 320.242 381.113 312.197C373.06 308.431 365.52 305.179 356.438 304.494V304.323C355.067 304.323 352.669 304.323 351.298 304.323C345.643 304.494 339.988 304.665 334.505 305.692C333.134 306.035 331.763 306.377 330.392 306.377C328.679 315.449 325.766 331.368 324.566 331.197H324.395C324.224 331.197 324.224 331.197 324.052 331.025C322.853 330.683 321.482 331.025 320.283 333.079C318.226 336.845 320.283 344.377 323.024 346.602C324.395 347.629 325.595 348.485 326.451 348.998C327.822 355.845 330.221 362.349 333.82 366.286C343.244 376.385 351.983 378.611 354.382 378.953C354.553 378.953 354.896 378.953 355.067 378.953C355.067 378.953 355.239 378.953 355.41 378.953C357.124 378.782 366.548 377.07 376.658 366.115C380.257 362.349 382.827 359.611 384.369 349.512C385.397 348.998 386.425 348.142 388.139 346.773C391.223 344.719 393.279 337.188 391.223 333.422Z" fill="url(#paint5_linear)"/>
<path d="M356.184 343.052C356.184 343.052 356.315 346.908 355.272 348.177C354.229 349.446 352.251 350.674 352.087 351.623C351.896 352.391 352.725 353.739 354.17 354.07C355.615 354.4 355.85 354.918 355.85 354.918C355.85 354.918 353.182 355.699 351.514 353.926C349.846 352.154 351.108 350.297 352.33 349.185C353.552 348.073 354.102 347.619 354.623 346.985C355.296 346.327 356.184 343.052 356.184 343.052Z" fill="#D87C60"/>
<path d="M366.513 360.052H345.812C345.136 360.052 344.66 360.707 344.931 361.326C346.39 364.661 349.972 369.552 355.947 369.552C361.899 369.552 365.731 364.7 367.377 361.367C367.685 360.743 367.209 360.052 366.513 360.052Z" fill="#D87C60"/>
<path fill-rule="evenodd" clip-rule="evenodd" d="M366.423 363.052H345.814C345.463 362.454 345.169 361.869 344.931 361.326C344.66 360.707 345.136 360.052 345.812 360.052H366.513C367.209 360.052 367.685 360.743 367.377 361.367C367.114 361.898 366.796 362.469 366.423 363.052Z" fill="white"/>
<path d="M376.045 291.999C401.577 295.251 395.579 326.404 390.61 331.881L386.947 338.052C385.114 334.885 381.347 326.152 380.947 316.552C377.114 319.052 365.647 324.052 350.447 324.052C331.447 324.052 326.24 327.197 324.447 336.052C319.992 326.124 316.928 306.035 327.894 294.738C342.974 278.99 365.764 275.224 376.045 291.999Z" fill="#402B2B"/>
<path d="M324.466 335.989L325.323 343.35C325.323 343.35 322.752 341.98 322.238 338.557C322.067 336.503 322.924 335.134 324.466 335.989Z" fill="#ED8A40"/>
<path d="M386.666 335.989L385.81 343.35C385.81 343.35 388.38 341.98 388.894 338.557C389.065 336.503 388.38 335.134 386.666 335.989Z" fill="#ED8A40"/>
<path d="M373.133 344.312C373.133 345.853 371.933 347.222 370.22 347.222C368.677 347.222 367.307 346.024 367.307 344.312C367.307 342.772 368.506 341.402 370.22 341.402C371.933 341.402 373.133 342.772 373.133 344.312Z" fill="#402B2B"/>
<path d="M342.631 347.222C344.24 347.222 345.544 345.919 345.544 344.312C345.544 342.705 344.24 341.402 342.631 341.402C341.022 341.402 339.718 342.705 339.718 344.312C339.718 345.919 341.022 347.222 342.631 347.222Z" fill="#402B2B"/>
<path d="M334.988 338.912C336.237 337.55 339.893 334.825 344.526 334.825" stroke="#402B2B" stroke-width="2"/>
<path d="M368.028 334.942C369.874 334.862 374.386 335.52 377.662 338.796" stroke="#402B2B" stroke-width="2"/>
<path d="M417.512 439.547C418.198 421.061 412.543 410.106 403.975 405.484C395.408 400.863 375.188 395.043 374.502 394.872L356.168 409.421L338.689 394.872C338.004 395.043 317.27 400.863 308.874 405.484C300.306 410.106 294.651 421.061 295.337 439.547C295.851 454.439 294.823 477.889 294.994 495.006H418.026C418.026 477.889 416.998 454.439 417.512 439.547Z" fill="url(#paint6_linear)"/>
<path d="M366.277 401.205L361.479 398.98L355.996 409.079L350.512 398.98L345.543 401.205L352.74 412.845V495.006H359.423V412.331L366.277 401.205Z" fill="#EE4D47" fill-opacity="0.29" style="mix-blend-mode:multiply"/>
<path d="M344.687 383.232C344.515 388.196 351.541 401.034 351.541 401.034L339.375 412.844L335.434 395.728C335.434 395.728 339.375 385.286 344.687 383.232Z" fill="white"/>
<path d="M367.99 383.232C368.162 388.196 360.279 401.205 360.279 401.205L373.131 412.844L377.072 395.556C377.072 395.556 373.302 385.286 367.99 383.232Z" fill="white"/>
<path d="M358.054 415.754C358.054 416.781 357.197 417.637 356.169 417.637C355.141 417.637 354.284 416.781 354.284 415.754C354.284 414.727 355.141 413.872 356.169 413.872C357.197 413.872 358.054 414.727 358.054 415.754Z" fill="white"/>
<path d="M358.053 433.214C358.053 434.241 357.196 435.097 356.168 435.097C355.14 435.097 354.283 434.241 354.283 433.214C354.283 432.187 355.14 431.331 356.168 431.331C357.196 431.331 358.053 432.015 358.053 433.214Z" fill="white"/>
<path d="M358.053 450.331C358.053 451.358 357.196 452.213 356.168 452.213C355.14 452.213 354.283 451.358 354.283 450.331C354.283 449.304 355.14 448.448 356.168 448.448C357.196 448.448 358.053 449.304 358.053 450.331Z" fill="white"/>
<path d="M358.053 469.33C358.053 470.358 357.196 471.213 356.168 471.213C355.14 471.213 354.283 470.358 354.283 469.33C354.283 468.303 355.14 467.448 356.168 467.448C357.196 467.448 358.053 468.303 358.053 469.33Z" fill="white"/>
<path d="M298.078 410.619C298.078 410.619 279.915 459.403 278.544 467.448C277.344 475.493 287.626 494.15 292.424 494.835C299.449 495.862 305.104 493.808 312.129 481.826C318.983 469.844 317.784 418.664 317.784 418.664L298.078 410.619Z" fill="url(#paint7_linear)"/>
<path d="M317.955 413.872C317.955 413.872 316.756 472.754 314.185 480.114C310.073 491.925 299.62 495.177 299.62 495.177H311.272C311.272 495.177 320.354 489.186 321.211 471.213C321.725 460.43 319.84 426.025 318.812 414.556C318.469 411.475 317.955 413.872 317.955 413.872Z" fill="#EE4D47" fill-opacity="0.29" style="mix-blend-mode:multiply"/>
<path d="M321.982 408.315L302.281 400.364L298.173 410.521L317.874 418.472L321.982 408.315Z" fill="white"/>
<path d="M396.436 422.259C396.436 422.259 389.41 455.637 388.896 469.331C388.382 483.024 388.896 494.835 388.896 494.835L393.866 495.177C393.866 495.177 395.065 435.268 396.436 422.259Z" fill="#EE4D47" fill-opacity="0.29" style="mix-blend-mode:multiply"/>
<path d="M336.803 376.043C327.379 376.043 324.294 371.422 322.409 364.404C321.553 360.638 321.21 350.539 321.21 350.197H323.952C323.952 350.368 324.294 360.467 325.151 363.89C326.865 370.566 329.435 373.989 338.688 373.304L338.859 376.043C338.174 376.043 337.489 376.043 336.803 376.043Z" fill="white"/>
<path d="M356.167 282.927C348.628 282.242 331.321 282.756 323.438 297.819C323.438 297.819 325.495 301.413 327.894 299.017C336.461 291.314 348.456 291.143 355.824 291.143C363.364 291.143 375.873 291.143 384.269 299.017C386.839 301.242 388.724 297.819 388.724 297.819C381.013 282.756 363.707 282.242 356.167 282.927Z" fill="white"/>
<path d="M396.778 334.62C396.778 334.62 396.435 324.179 396.264 321.269C395.921 315.62 395.064 306.377 393.179 301.413C387.01 284.467 366.962 281.215 356.509 281.215C345.885 281.215 325.494 284.467 319.326 301.242C317.612 306.035 316.755 314.593 316.241 320.413C316.07 323.836 315.898 334.449 315.898 334.449H318.811C318.811 334.449 318.811 323.836 319.154 320.413C319.497 315.962 320.354 309.458 322.581 303.296C327.722 288.747 346.742 287.206 355.995 287.206C365.42 287.206 384.783 288.747 389.923 303.296C392.322 310.143 393.179 317.161 393.522 321.611C393.693 324.521 393.865 334.62 393.865 334.62H396.778Z" fill="url(#paint8_linear)"/>
<path d="M319.497 332.566H315.728V348.656H319.497V332.566Z" fill="white"/>
<path d="M326.181 351.737H321.897C319.84 351.737 318.127 350.025 318.127 347.971V333.251C318.127 331.197 319.84 329.485 321.897 329.485H326.181C326.695 329.485 327.037 329.827 327.037 330.341V350.71C327.037 351.223 326.695 351.737 326.181 351.737Z" fill="url(#paint9_linear)"/>
<path d="M314.185 350.025H314.014C313.157 350.025 312.472 349.341 312.472 348.485V332.395C312.472 331.539 313.157 330.854 314.014 330.854H314.185C315.042 330.854 315.727 331.539 315.727 332.395V348.485C315.727 349.341 315.042 350.025 314.185 350.025Z" fill="url(#paint10_linear)"/>
<path d="M392.625 348.934H396.395V332.844H392.625V348.934Z" fill="white"/>
<path d="M386.154 352.079H390.438C392.494 352.079 394.208 350.367 394.208 348.313V333.593C394.208 331.539 392.494 329.827 390.438 329.827H386.154C385.64 329.827 385.297 330.169 385.297 330.683V351.052C385.126 351.566 385.64 352.079 386.154 352.079Z" fill="url(#paint11_linear)"/>
<path d="M397.978 350.368H398.149C399.006 350.368 399.691 349.683 399.691 348.827V332.737C399.691 331.881 399.006 331.197 398.149 331.197H397.978C397.121 331.197 396.436 331.881 396.436 332.737V348.827C396.436 349.683 397.121 350.368 397.978 350.368Z" fill="url(#paint12_linear)"/>
<path d="M346.914 374.331C346.914 376.043 344.858 377.584 342.116 377.584C339.546 377.584 337.318 376.214 337.318 374.331C337.318 372.448 339.375 371.079 342.116 371.079C344.687 371.079 346.914 372.448 346.914 374.331Z" fill="url(#paint13_linear)"/>
<path fill-rule="evenodd" clip-rule="evenodd" d="M311.102 363.377L311.102 363.376C312.696 361.884 314.522 360.854 316.275 359.985C319.428 357.945 323.104 355.625 324.467 354.989C327.209 353.62 328.923 356.016 324.981 359.44C324.126 360.183 323.134 360.974 322.104 361.758C324.244 360.938 326.138 360.234 327.037 359.953C329.95 359.098 331.321 361.836 326.694 364.404C324.813 365.448 322.449 366.577 320.307 367.55L321.041 369.881C321.041 369.881 323.097 367.998 323.782 367.485C328.066 364.575 330.294 366.971 328.409 369.539C326.353 372.106 323.268 379.467 324.296 384.602C324.982 388.025 324.468 392.818 323.611 396.584C322.754 400.178 317.442 410.791 317.442 410.791L303.734 405.998C303.734 405.998 306.818 402.746 306.304 394.872C306.152 392.291 305.124 389.576 304.101 386.875C302.818 383.485 301.543 380.119 302.02 377.07C302.877 372.278 309.902 364.576 311.102 363.377L311.102 363.377Z" fill="url(#paint14_linear)"/>
<path opacity="0.3" d="M323.439 383.917C323.782 379.638 323.439 378.782 323.096 376.728C322.754 374.331 323.268 371.25 322.24 369.025C321.04 366.629 319.155 365.26 315.9 365.944C311.616 366.971 309.902 369.196 309.902 369.196C309.902 369.196 313.329 367.827 315.043 367.314C317.613 366.629 320.183 366.8 321.212 369.881C321.726 371.764 322.068 374.331 322.411 376.214C322.582 377.584 323.61 383.575 322.754 383.746C321.897 383.746 320.012 383.232 319.155 380.151C318.984 380.836 318.813 385.458 318.298 385.458C315.214 385.115 314.871 382.719 314.7 380.151C314.7 378.953 314.529 377.241 314.186 375.016C312.987 376.899 310.074 378.611 308.874 379.467C310.245 380.665 312.815 383.575 313.843 384.773C315.728 386.998 317.442 390.421 317.784 394.016C322.411 389.566 319.841 384.944 319.669 383.403C320.869 384.773 323.268 385.8 323.439 383.917Z" fill="#EB5046"/>
<path d="M517.756 383.917C517.756 381.349 515.7 379.467 512.958 379.467H386.327C383.757 379.467 381.529 381.521 381.529 383.917V462.655H517.584V383.917H517.756Z" fill="url(#paint15_linear)"/>
<path d="M386.498 477.547H513.129C515.699 477.547 517.927 475.493 517.927 473.096V462.826H381.872V473.096C381.7 475.493 383.928 477.547 386.498 477.547Z" fill="#CA3F3A"/>
<path d="M469.606 475.664H435.678V491.754H469.606V475.664Z" fill="#CA3F3A"/>
<path d="M473.717 475.664H439.789V491.754H473.717V475.664Z" fill="url(#paint16_linear)"/>
<path d="M468.063 490.213H426.081V494.835H468.063V490.213Z" fill="url(#paint17_linear)"/>
<path d="M481.771 490.213H439.789V494.835H481.771V490.213Z" fill="url(#paint18_linear)"/>
<path d="M524.782 383.917C524.782 381.349 522.725 379.467 519.984 379.467H393.524C390.954 379.467 388.727 381.521 388.727 383.917V462.655H524.782V383.917Z" fill="url(#paint19_linear)"/>
<path d="M393.524 477.547H520.155C522.725 477.547 524.953 475.493 524.953 473.096V462.826H388.898V473.096C388.726 475.493 390.783 477.547 393.524 477.547Z" fill="url(#paint20_linear)"/>
<path opacity="0.2" d="M469.091 413.872C469.091 420.718 463.608 426.196 456.754 426.196C449.899 426.196 444.416 420.718 444.416 413.872C444.416 407.025 449.899 401.547 456.754 401.547C463.608 401.547 469.091 407.025 469.091 413.872Z" fill="white"/>
<path d="M354.111 490.213H324.81V494.664H354.111V490.213Z" fill="url(#paint21_linear)"/>
<path d="M402.776 490.213H341.26V494.664H402.776V490.213Z" fill="url(#paint22_linear)"/>
<g clip-path="url(#clip0)">
<path d="M593.447 461.022H513.447V494.953H593.447V461.022Z" fill="#FCDDD4"/>
<path fill-rule="evenodd" clip-rule="evenodd" d="M553.892 452.177V452.254C554.527 450.485 555.798 447.669 557.935 443.469C562.177 435.427 566.912 429.249 566.912 429.249C566.912 429.249 564.841 436.114 560.599 444.155C556.848 451.352 554.794 454.256 553.892 454.696V455.106C554.979 453.677 557.372 451.226 561.585 447.391C568.589 441.115 575.494 436.604 575.494 436.604C575.494 436.604 571.055 442.39 564.052 448.764C559.944 452.451 557.222 454.661 555.523 455.794C557.253 454.725 559.943 453.258 563.855 451.314C572.535 446.999 580.427 444.351 580.427 444.351C580.427 444.351 574.311 448.764 565.63 453.079C559.019 456.44 555.44 457.867 553.892 458.14V458.435C555.284 457.664 558.845 456.428 565.63 454.55C575.198 451.902 583.583 450.726 583.583 450.726C583.583 450.726 576.283 453.962 566.715 456.61C563.596 457.473 561.105 458.107 559.155 458.549C561.131 458.22 563.682 457.866 566.912 457.492C577.072 456.217 585.556 456.315 585.556 456.315C585.556 456.315 577.566 458.473 567.405 459.65C559.225 460.676 555.201 460.812 553.892 460.52V460.728H552.905V460.588C552.723 460.641 552.469 460.684 552.116 460.728H549.255C547.085 460.63 543.83 460.434 539.292 459.846C529.132 458.571 521.142 456.511 521.142 456.511C521.142 456.511 529.625 456.413 539.785 457.688C542.838 458.042 545.285 458.369 547.213 458.669C545.314 458.232 542.929 457.621 539.982 456.806C530.315 454.158 523.114 450.922 523.114 450.922C523.114 450.922 531.499 452.098 541.067 454.746C548.021 456.67 551.589 457.921 552.905 458.687V458.341C551.414 458.091 547.824 456.634 541.068 453.275C532.387 448.96 526.271 444.547 526.271 444.547C526.271 444.547 534.163 447.195 542.844 451.51C546.51 453.333 549.103 454.735 550.838 455.785C549.11 454.599 546.464 452.435 542.646 448.96C535.642 442.586 531.203 436.8 531.203 436.8C531.203 436.8 538.108 441.213 545.112 447.587C548.123 450.327 550.204 452.361 551.543 453.82C550.392 452.331 548.606 449.389 546 444.449C541.758 436.408 539.687 429.543 539.687 429.543C539.687 429.543 544.52 435.721 548.663 443.763C551.053 448.402 552.36 451.377 552.905 453.101V452.179C552.375 450.962 552.017 447.445 552.017 440.429C552.017 431.406 553.398 424.052 553.398 424.052C553.398 424.052 554.779 431.406 554.779 440.429C554.779 447.441 554.422 450.958 553.892 452.177ZM552.905 455.049C552.759 455.038 552.568 454.928 552.326 454.706C552.553 454.976 552.746 455.218 552.905 455.435V455.049ZM552.905 456.91C552.665 456.847 552.353 456.711 551.962 456.493C552.34 456.744 552.653 456.967 552.905 457.164V456.91ZM553.892 456.892C554.163 456.685 554.496 456.452 554.898 456.191C554.484 456.437 554.152 456.598 553.892 456.683V456.892ZM552.905 459.57C552.588 459.591 552.139 459.569 551.543 459.497C552.174 459.658 552.62 459.808 552.905 459.947V459.57ZM553.892 459.79C554.262 459.62 554.85 459.431 555.693 459.227C554.89 459.347 554.298 459.394 553.892 459.379V459.79Z" fill="#F37753"/>
<path d="M548.071 460.728H529.625C532.486 460.532 535.938 460.434 539.588 460.434C543.139 460.434 546 460.532 548.071 460.728Z" fill="#F37753"/>
<path d="M558.626 460.728H577.072C574.212 460.532 570.759 460.336 567.109 460.434C563.46 460.532 560.698 460.63 558.626 460.728Z" fill="#F37753"/>
</g>
<path d="M426.447 299.052C426.447 288.006 435.402 279.052 446.447 279.052H559.066C570.112 279.052 579.066 288.006 579.066 299.052V325.664C579.066 336.71 570.112 345.664 559.066 345.664H426.447V299.052Z" fill="#F69477"/>
<circle opacity="0.5" cx="461.018" cy="312.78" r="5.05919" fill="white"/>
<circle opacity="0.5" cx="482.098" cy="312.78" r="5.05919" fill="white"/>
<circle opacity="0.5" cx="503.178" cy="312.78" r="5.05919" fill="white"/>
<circle opacity="0.5" cx="524.258" cy="312.78" r="5.05919" fill="white"/>
<circle opacity="0.5" cx="545.339" cy="312.78" r="5.05919" fill="white"/>
<defs>
<linearGradient id="paint0_linear" x1="309.855" y1="178.118" x2="227.403" y2="328.965" gradientUnits="userSpaceOnUse">
<stop stop-color="#F37753"/>
<stop offset="1" stop-color="white" stop-opacity="0"/>
</linearGradient>
<linearGradient id="paint1_linear" x1="222.969" y1="144.035" x2="270.575" y2="470.013" gradientUnits="userSpaceOnUse">
<stop stop-color="#F7A58D"/>
<stop offset="1" stop-color="#F58A6B"/>
</linearGradient>
<linearGradient id="paint2_linear" x1="371.235" y1="382.548" x2="368.181" y2="348.762" gradientUnits="userSpaceOnUse">
<stop stop-color="#FFB3B6"/>
<stop offset="1" stop-color="#FFC8C1"/>
</linearGradient>
<linearGradient id="paint3_linear" x1="343.827" y1="378.589" x2="372.561" y2="388.937" gradientUnits="userSpaceOnUse">
<stop stop-color="#FFB3B6" stop-opacity="0.31"/>
<stop offset="1" stop-color="#FFC8C1"/>
</linearGradient>
<linearGradient id="paint4_linear" x1="396.81" y1="436.46" x2="390.681" y2="373.259" gradientUnits="userSpaceOnUse">
<stop stop-color="#FFB3B6"/>
<stop offset="1" stop-color="white"/>
</linearGradient>
<linearGradient id="paint5_linear" x1="395.32" y1="369.908" x2="389.436" y2="319.279" gradientUnits="userSpaceOnUse">
<stop stop-color="#FFB3B6"/>
<stop offset="1" stop-color="#FFC8C1"/>
</linearGradient>
<linearGradient id="paint6_linear" x1="356.5" y1="371.693" x2="356.5" y2="497.748" gradientUnits="userSpaceOnUse">
<stop stop-color="#F4A984"/>
<stop offset="1" stop-color="#EE4D47"/>
</linearGradient>
<linearGradient id="paint7_linear" x1="298.156" y1="391.072" x2="298.156" y2="497.379" gradientUnits="userSpaceOnUse">
<stop stop-color="#F4A984"/>
<stop offset="1" stop-color="#EE4D47"/>
</linearGradient>
<linearGradient id="paint8_linear" x1="356.338" y1="268.853" x2="356.338" y2="336.082" gradientUnits="userSpaceOnUse">
<stop stop-color="#F4A984"/>
<stop offset="1" stop-color="#EE4D47"/>
</linearGradient>
<linearGradient id="paint9_linear" x1="322.582" y1="324.334" x2="322.582" y2="352.346" gradientUnits="userSpaceOnUse">
<stop stop-color="#F4A984"/>
<stop offset="1" stop-color="#EE4D47"/>
</linearGradient>
<linearGradient id="paint10_linear" x1="314.1" y1="326.417" x2="314.1" y2="350.55" gradientUnits="userSpaceOnUse">
<stop stop-color="#F4A984"/>
<stop offset="1" stop-color="#EE4D47"/>
</linearGradient>
<linearGradient id="paint11_linear" x1="389.736" y1="324.676" x2="389.736" y2="352.688" gradientUnits="userSpaceOnUse">
<stop stop-color="#F4A984"/>
<stop offset="1" stop-color="#EE4D47"/>
</linearGradient>
<linearGradient id="paint12_linear" x1="398.063" y1="326.759" x2="398.063" y2="350.892" gradientUnits="userSpaceOnUse">
<stop stop-color="#F4A984"/>
<stop offset="1" stop-color="#EE4D47"/>
</linearGradient>
<linearGradient id="paint13_linear" x1="342.116" y1="369.573" x2="342.116" y2="377.762" gradientUnits="userSpaceOnUse">
<stop stop-color="#F4A984"/>
<stop offset="1" stop-color="#EE4D47"/>
</linearGradient>
<linearGradient id="paint14_linear" x1="315.447" y1="408.552" x2="337.947" y2="324.552" gradientUnits="userSpaceOnUse">
<stop stop-color="#FFB3B6"/>
<stop offset="0.239165" stop-color="#FFC5C7"/>
<stop offset="1" stop-color="white"/>
</linearGradient>
<linearGradient id="paint15_linear" x1="430.552" y1="630.315" x2="430.552" y2="145.243" gradientUnits="userSpaceOnUse">
<stop stop-color="#FFEDBA"/>
<stop offset="0.423008" stop-color="#F16D5E"/>
<stop offset="0.651925" stop-color="#EE4D47"/>
</linearGradient>
<linearGradient id="paint16_linear" x1="451.998" y1="524.182" x2="451.998" y2="430.361" gradientUnits="userSpaceOnUse">
<stop stop-color="#FFEDBA"/>
<stop offset="1" stop-color="#EE4D47"/>
</linearGradient>
<linearGradient id="paint17_linear" x1="441.189" y1="512.324" x2="441.189" y2="485.824" gradientUnits="userSpaceOnUse">
<stop stop-color="#FFEDBA"/>
<stop offset="1" stop-color="#EE4D47"/>
</linearGradient>
<linearGradient id="paint18_linear" x1="454.897" y1="504.149" x2="454.897" y2="477.201" gradientUnits="userSpaceOnUse">
<stop stop-color="#FFEDBA"/>
<stop offset="1" stop-color="#EE4D47"/>
</linearGradient>
<linearGradient id="paint19_linear" x1="437.688" y1="517.093" x2="437.688" y2="300.459" gradientUnits="userSpaceOnUse">
<stop stop-color="#FFEDBA"/>
<stop offset="1" stop-color="#EE4D47"/>
</linearGradient>
<linearGradient id="paint20_linear" x1="437.852" y1="507.215" x2="437.852" y2="421.379" gradientUnits="userSpaceOnUse">
<stop stop-color="#FFEDBA"/>
<stop offset="1" stop-color="#EE4D47"/>
</linearGradient>
<linearGradient id="paint21_linear" x1="335.354" y1="511.505" x2="335.354" y2="485.986" gradientUnits="userSpaceOnUse">
<stop stop-color="#FFEDBA"/>
<stop offset="1" stop-color="#EE4D47"/>
</linearGradient>
<linearGradient id="paint22_linear" x1="363.397" y1="490.184" x2="363.397" y2="470.769" gradientUnits="userSpaceOnUse">
<stop stop-color="#FFEDBA"/>
<stop offset="1" stop-color="#EE4D47"/>
</linearGradient>
<clipPath id="clip0">
<rect width="80" height="71" fill="white" transform="translate(513.447 424.052)"/>
</clipPath>
</defs>
</svg>
